<?xml version="1.0" encoding="UTF-8" standalone="no"?>
<!-- Created with Inkscape (http://www.inkscape.org/) -->

<svg
   xmlns:dc="http://purl.org/dc/elements/1.1/"
   xmlns:cc="http://creativecommons.org/ns#"
   xmlns:rdf="http://www.w3.org/1999/02/22-rdf-syntax-ns#"
   xmlns:svg="http://www.w3.org/2000/svg"
   xmlns="http://www.w3.org/2000/svg"
   xmlns:sodipodi="http://sodipodi.sourceforge.net/DTD/sodipodi-0.dtd"
   xmlns:inkscape="http://www.inkscape.org/namespaces/inkscape"
   width="177.4848mm"
   height="39.245495mm"
   viewBox="0 0 628.88316 139.05884"
   id="svg25316"
   version="1.1"
   inkscape:version="0.91 r13725"
   sodipodi:docname="ion_channels_animation_nonpacemaker_base.svg">
  <defs
     id="defs25318">
    <marker
       inkscape:isstock="true"
       style="overflow:visible"
       id="marker57775"
       refX="0"
       refY="0"
       orient="auto"
       inkscape:stockid="TriangleOutM">
      <path
         transform="scale(0.4,0.4)"
         style="fill:#000000;fill-opacity:1;fill-rule:evenodd;stroke:#000000;stroke-width:1pt;stroke-opacity:1"
         d="m 5.77,0 -8.65,5 0,-10 8.65,5 z"
         id="path57777"
         inkscape:connector-curvature="0" />
    </marker>
    <marker
       inkscape:stockid="Arrow1Send"
       orient="auto"
       refY="0"
       refX="0"
       id="Arrow1Send"
       style="overflow:visible"
       inkscape:isstock="true">
      <path
         id="path18908"
         d="M 0,0 5,-5 -12.5,0 5,5 0,0 Z"
         style="fill-rule:evenodd;stroke:#000000;stroke-width:1pt"
         transform="matrix(-0.2,0,0,-0.2,-1.2,0)"
         inkscape:connector-curvature="0" />
    </marker>
    <marker
       inkscape:stockid="TriangleOutL"
       orient="auto"
       refY="0"
       refX="0"
       id="marker57476"
       style="overflow:visible"
       inkscape:isstock="true">
      <path
         inkscape:connector-curvature="0"
         id="path57478"
         d="m 5.77,0 -8.65,5 0,-10 8.65,5 z"
         style="fill:#000000;fill-opacity:1;fill-rule:evenodd;stroke:#000000;stroke-width:1pt;stroke-opacity:1"
         transform="scale(0.8,0.8)" />
    </marker>
    <marker
       inkscape:isstock="true"
       style="overflow:visible"
       id="marker27141"
       refX="0"
       refY="0"
       orient="auto"
       inkscape:stockid="TriangleOutL">
      <path
         transform="scale(0.8,0.8)"
         style="fill:#000000;fill-opacity:1;fill-rule:evenodd;stroke:#000000;stroke-width:1pt;stroke-opacity:1"
         d="m 5.77,0 -8.65,5 0,-10 8.65,5 z"
         id="path27143"
         inkscape:connector-curvature="0" />
    </marker>
    <marker
       inkscape:stockid="Arrow1Send"
       orient="auto"
       refY="0"
       refX="0"
       id="marker26951"
       style="overflow:visible"
       inkscape:isstock="true">
      <path
         id="path26953"
         d="M 0,0 5,-5 -12.5,0 5,5 0,0 Z"
         style="fill:#000000;fill-opacity:1;fill-rule:evenodd;stroke:#000000;stroke-width:1pt;stroke-opacity:1"
         transform="matrix(-0.2,0,0,-0.2,-1.2,0)"
         inkscape:connector-curvature="0" />
    </marker>
    <marker
       inkscape:isstock="true"
       style="overflow:visible"
       id="marker26717"
       refX="0"
       refY="0"
       orient="auto"
       inkscape:stockid="Arrow1Send">
      <path
         transform="matrix(-0.2,0,0,-0.2,-1.2,0)"
         style="fill:#000000;fill-opacity:1;fill-rule:evenodd;stroke:#000000;stroke-width:1pt;stroke-opacity:1"
         d="M 0,0 5,-5 -12.5,0 5,5 0,0 Z"
         id="path26719"
         inkscape:connector-curvature="0" />
    </marker>
    <marker
       inkscape:stockid="Arrow1Mend"
       orient="auto"
       refY="0"
       refX="0"
       id="Arrow1Mend"
       style="overflow:visible"
       inkscape:isstock="true">
      <path
         id="path18902"
         d="M 0,0 5,-5 -12.5,0 5,5 0,0 Z"
         style="fill:#000000;fill-opacity:1;fill-rule:evenodd;stroke:#000000;stroke-width:1pt;stroke-opacity:1"
         transform="matrix(-0.4,0,0,-0.4,-4,0)"
         inkscape:connector-curvature="0" />
    </marker>
    <marker
       inkscape:stockid="Arrow1Lend"
       orient="auto"
       refY="0"
       refX="0"
       id="Arrow1Lend"
       style="overflow:visible"
       inkscape:isstock="true">
      <path
         id="path18896"
         d="M 0,0 5,-5 -12.5,0 5,5 0,0 Z"
         style="fill:#000000;fill-opacity:1;fill-rule:evenodd;stroke:#000000;stroke-width:1pt;stroke-opacity:1"
         transform="matrix(-0.8,0,0,-0.8,-10,0)"
         inkscape:connector-curvature="0" />
    </marker>
  </defs>
  <sodipodi:namedview
     id="base"
     pagecolor="#ffffff"
     bordercolor="#666666"
     borderopacity="1.0"
     inkscape:pageopacity="0.0"
     inkscape:pageshadow="2"
     inkscape:zoom="1.4"
     inkscape:cx="369.58457"
     inkscape:cy="23.838005"
     inkscape:document-units="px"
     inkscape:current-layer="layer2"
     showgrid="false"
     inkscape:snap-global="true"
     inkscape:snap-bbox="true"
     inkscape:bbox-paths="true"
     inkscape:bbox-nodes="true"
     inkscape:snap-bbox-edge-midpoints="true"
     inkscape:snap-bbox-midpoints="true"
     inkscape:snap-intersection-paths="true"
     inkscape:object-paths="true"
     inkscape:object-nodes="true"
     inkscape:snap-smooth-nodes="true"
     inkscape:snap-midpoints="true"
     inkscape:snap-object-midpoints="false"
     inkscape:snap-center="false"
     inkscape:snap-text-baseline="false"
     inkscape:window-width="1920"
     inkscape:window-height="1178"
     inkscape:window-x="2792"
     inkscape:window-y="712"
     inkscape:window-maximized="1"
     fit-margin-left="5"
     fit-margin-top="5"
     fit-margin-bottom="5"
     fit-margin-right="5" />
  <metadata
     id="metadata25321">
    <rdf:RDF>
      <cc:Work
         rdf:about="">
        <dc:format>image/svg+xml</dc:format>
        <dc:type
           rdf:resource="http://purl.org/dc/dcmitype/StillImage" />
        <dc:title></dc:title>
      </cc:Work>
    </rdf:RDF>
  </metadata>
  <g
     inkscape:label="Ebene 1"
     inkscape:groupmode="layer"
     id="layer1">
    <g
       id="g26071">
      <g
         transform="translate(-63.008104,-242.95989)"
         id="g4166">
        <g
           id="g4150"
           transform="matrix(0.3481678,0,0,0.3481678,58.51858,218.07393)">
          <path
             sodipodi:nodetypes="csc"
             inkscape:connector-curvature="0"
             id="path4152"
             d="m 108.33886,283.63612 c 0,0 5.55584,-7.82869 5.3033,-16.92006 -0.25254,-9.09137 -2.52538,-21.2132 -2.52538,-21.2132"
             style="fill:none;fill-rule:evenodd;stroke:#000000;stroke-width:3.70000005;stroke-linecap:round;stroke-linejoin:miter;stroke-miterlimit:4;stroke-dasharray:none;stroke-opacity:1" />
          <path
             sodipodi:nodetypes="csc"
             style="fill:none;fill-rule:evenodd;stroke:#000000;stroke-width:3.70000005;stroke-linecap:round;stroke-linejoin:miter;stroke-miterlimit:4;stroke-dasharray:none;stroke-opacity:1"
             d="m 103.13621,283.63612 c 0,0 -5.555838,-7.82869 -5.303298,-16.92006 0.25254,-9.09137 3.535528,-21.71828 3.535528,-21.71828"
             id="path4154"
             inkscape:connector-curvature="0" />
          <circle
             r="7.5"
             cy="289.86221"
             cx="106.07143"
             id="circle4156"
             style="opacity:1;fill:#db0000;fill-opacity:1;stroke:none;stroke-width:1;stroke-linecap:round;stroke-linejoin:miter;stroke-miterlimit:4;stroke-dasharray:none;stroke-dashoffset:0;stroke-opacity:1" />
        </g>
        <g
           transform="matrix(0.3481678,0,0,-0.3481678,58.51858,386.61036)"
           id="g4158">
          <path
             style="fill:none;fill-rule:evenodd;stroke:#000000;stroke-width:3.70000005;stroke-linecap:round;stroke-linejoin:miter;stroke-miterlimit:4;stroke-dasharray:none;stroke-opacity:1"
             d="m 108.33886,283.63612 c 0,0 5.55584,-7.82869 5.3033,-16.92006 -0.25254,-9.09137 -2.52538,-21.2132 -2.52538,-21.2132"
             id="path4160"
             inkscape:connector-curvature="0"
             sodipodi:nodetypes="csc" />
          <path
             inkscape:connector-curvature="0"
             id="path4162"
             d="m 103.13621,283.63612 c 0,0 -5.555838,-7.82869 -5.303298,-16.92006 0.25254,-9.09137 3.535528,-21.71828 3.535528,-21.71828"
             style="fill:none;fill-rule:evenodd;stroke:#000000;stroke-width:3.70000005;stroke-linecap:round;stroke-linejoin:miter;stroke-miterlimit:4;stroke-dasharray:none;stroke-opacity:1"
             sodipodi:nodetypes="csc" />
          <circle
             style="opacity:1;fill:#db0000;fill-opacity:1;stroke:none;stroke-width:1;stroke-linecap:round;stroke-linejoin:miter;stroke-miterlimit:4;stroke-dasharray:none;stroke-dashoffset:0;stroke-opacity:1"
             id="circle4164"
             cx="106.07143"
             cy="289.86221"
             r="7.5" />
        </g>
      </g>
      <g
         id="g25918"
         transform="translate(-56.881379,-242.95989)">
        <g
           transform="matrix(0.3481678,0,0,0.3481678,58.51858,218.07393)"
           id="g25920">
          <path
             style="fill:none;fill-rule:evenodd;stroke:#000000;stroke-width:3.70000005;stroke-linecap:round;stroke-linejoin:miter;stroke-miterlimit:4;stroke-dasharray:none;stroke-opacity:1"
             d="m 108.33886,283.63612 c 0,0 5.55584,-7.82869 5.3033,-16.92006 -0.25254,-9.09137 -2.52538,-21.2132 -2.52538,-21.2132"
             id="path25922"
             inkscape:connector-curvature="0"
             sodipodi:nodetypes="csc" />
          <path
             inkscape:connector-curvature="0"
             id="path25924"
             d="m 103.13621,283.63612 c 0,0 -5.555838,-7.82869 -5.303298,-16.92006 0.25254,-9.09137 3.535528,-21.71828 3.535528,-21.71828"
             style="fill:none;fill-rule:evenodd;stroke:#000000;stroke-width:3.70000005;stroke-linecap:round;stroke-linejoin:miter;stroke-miterlimit:4;stroke-dasharray:none;stroke-opacity:1"
             sodipodi:nodetypes="csc" />
          <circle
             style="opacity:1;fill:#db0000;fill-opacity:1;stroke:none;stroke-width:1;stroke-linecap:round;stroke-linejoin:miter;stroke-miterlimit:4;stroke-dasharray:none;stroke-dashoffset:0;stroke-opacity:1"
             id="circle25926"
             cx="106.07143"
             cy="289.86221"
             r="7.5" />
        </g>
        <g
           id="g25928"
           transform="matrix(0.3481678,0,0,-0.3481678,58.51858,386.61036)">
          <path
             sodipodi:nodetypes="csc"
             inkscape:connector-curvature="0"
             id="path25930"
             d="m 108.33886,283.63612 c 0,0 5.55584,-7.82869 5.3033,-16.92006 -0.25254,-9.09137 -2.52538,-21.2132 -2.52538,-21.2132"
             style="fill:none;fill-rule:evenodd;stroke:#000000;stroke-width:3.70000005;stroke-linecap:round;stroke-linejoin:miter;stroke-miterlimit:4;stroke-dasharray:none;stroke-opacity:1" />
          <path
             sodipodi:nodetypes="csc"
             style="fill:none;fill-rule:evenodd;stroke:#000000;stroke-width:3.70000005;stroke-linecap:round;stroke-linejoin:miter;stroke-miterlimit:4;stroke-dasharray:none;stroke-opacity:1"
             d="m 103.13621,283.63612 c 0,0 -5.555838,-7.82869 -5.303298,-16.92006 0.25254,-9.09137 3.535528,-21.71828 3.535528,-21.71828"
             id="path25932"
             inkscape:connector-curvature="0" />
          <circle
             r="7.5"
             cy="289.86221"
             cx="106.07143"
             id="circle25934"
             style="opacity:1;fill:#db0000;fill-opacity:1;stroke:none;stroke-width:1;stroke-linecap:round;stroke-linejoin:miter;stroke-miterlimit:4;stroke-dasharray:none;stroke-dashoffset:0;stroke-opacity:1" />
        </g>
      </g>
      <g
         id="g25936"
         transform="translate(-50.754654,-242.95989)">
        <g
           transform="matrix(0.3481678,0,0,0.3481678,58.51858,218.07393)"
           id="g25938">
          <path
             style="fill:none;fill-rule:evenodd;stroke:#000000;stroke-width:3.70000005;stroke-linecap:round;stroke-linejoin:miter;stroke-miterlimit:4;stroke-dasharray:none;stroke-opacity:1"
             d="m 108.33886,283.63612 c 0,0 5.55584,-7.82869 5.3033,-16.92006 -0.25254,-9.09137 -2.52538,-21.2132 -2.52538,-21.2132"
             id="path25940"
             inkscape:connector-curvature="0"
             sodipodi:nodetypes="csc" />
          <path
             inkscape:connector-curvature="0"
             id="path25942"
             d="m 103.13621,283.63612 c 0,0 -5.555838,-7.82869 -5.303298,-16.92006 0.25254,-9.09137 3.535528,-21.71828 3.535528,-21.71828"
             style="fill:none;fill-rule:evenodd;stroke:#000000;stroke-width:3.70000005;stroke-linecap:round;stroke-linejoin:miter;stroke-miterlimit:4;stroke-dasharray:none;stroke-opacity:1"
             sodipodi:nodetypes="csc" />
          <circle
             style="opacity:1;fill:#db0000;fill-opacity:1;stroke:none;stroke-width:1;stroke-linecap:round;stroke-linejoin:miter;stroke-miterlimit:4;stroke-dasharray:none;stroke-dashoffset:0;stroke-opacity:1"
             id="circle25944"
             cx="106.07143"
             cy="289.86221"
             r="7.5" />
        </g>
        <g
           id="g25946"
           transform="matrix(0.3481678,0,0,-0.3481678,58.51858,386.61036)">
          <path
             sodipodi:nodetypes="csc"
             inkscape:connector-curvature="0"
             id="path25948"
             d="m 108.33886,283.63612 c 0,0 5.55584,-7.82869 5.3033,-16.92006 -0.25254,-9.09137 -2.52538,-21.2132 -2.52538,-21.2132"
             style="fill:none;fill-rule:evenodd;stroke:#000000;stroke-width:3.70000005;stroke-linecap:round;stroke-linejoin:miter;stroke-miterlimit:4;stroke-dasharray:none;stroke-opacity:1" />
          <path
             sodipodi:nodetypes="csc"
             style="fill:none;fill-rule:evenodd;stroke:#000000;stroke-width:3.70000005;stroke-linecap:round;stroke-linejoin:miter;stroke-miterlimit:4;stroke-dasharray:none;stroke-opacity:1"
             d="m 103.13621,283.63612 c 0,0 -5.555838,-7.82869 -5.303298,-16.92006 0.25254,-9.09137 3.535528,-21.71828 3.535528,-21.71828"
             id="path25950"
             inkscape:connector-curvature="0" />
          <circle
             r="7.5"
             cy="289.86221"
             cx="106.07143"
             id="circle25952"
             style="opacity:1;fill:#db0000;fill-opacity:1;stroke:none;stroke-width:1;stroke-linecap:round;stroke-linejoin:miter;stroke-miterlimit:4;stroke-dasharray:none;stroke-dashoffset:0;stroke-opacity:1" />
        </g>
      </g>
      <g
         transform="translate(-44.627929,-242.95989)"
         id="g25954">
        <g
           id="g25956"
           transform="matrix(0.3481678,0,0,0.3481678,58.51858,218.07393)">
          <path
             sodipodi:nodetypes="csc"
             inkscape:connector-curvature="0"
             id="path25958"
             d="m 108.33886,283.63612 c 0,0 5.55584,-7.82869 5.3033,-16.92006 -0.25254,-9.09137 -2.52538,-21.2132 -2.52538,-21.2132"
             style="fill:none;fill-rule:evenodd;stroke:#000000;stroke-width:3.70000005;stroke-linecap:round;stroke-linejoin:miter;stroke-miterlimit:4;stroke-dasharray:none;stroke-opacity:1" />
          <path
             sodipodi:nodetypes="csc"
             style="fill:none;fill-rule:evenodd;stroke:#000000;stroke-width:3.70000005;stroke-linecap:round;stroke-linejoin:miter;stroke-miterlimit:4;stroke-dasharray:none;stroke-opacity:1"
             d="m 103.13621,283.63612 c 0,0 -5.555838,-7.82869 -5.303298,-16.92006 0.25254,-9.09137 3.535528,-21.71828 3.535528,-21.71828"
             id="path25960"
             inkscape:connector-curvature="0" />
          <circle
             r="7.5"
             cy="289.86221"
             cx="106.07143"
             id="circle25962"
             style="opacity:1;fill:#db0000;fill-opacity:1;stroke:none;stroke-width:1;stroke-linecap:round;stroke-linejoin:miter;stroke-miterlimit:4;stroke-dasharray:none;stroke-dashoffset:0;stroke-opacity:1" />
        </g>
        <g
           transform="matrix(0.3481678,0,0,-0.3481678,58.51858,386.61036)"
           id="g25964">
          <path
             style="fill:none;fill-rule:evenodd;stroke:#000000;stroke-width:3.70000005;stroke-linecap:round;stroke-linejoin:miter;stroke-miterlimit:4;stroke-dasharray:none;stroke-opacity:1"
             d="m 108.33886,283.63612 c 0,0 5.55584,-7.82869 5.3033,-16.92006 -0.25254,-9.09137 -2.52538,-21.2132 -2.52538,-21.2132"
             id="path25966"
             inkscape:connector-curvature="0"
             sodipodi:nodetypes="csc" />
          <path
             inkscape:connector-curvature="0"
             id="path25968"
             d="m 103.13621,283.63612 c 0,0 -5.555838,-7.82869 -5.303298,-16.92006 0.25254,-9.09137 3.535528,-21.71828 3.535528,-21.71828"
             style="fill:none;fill-rule:evenodd;stroke:#000000;stroke-width:3.70000005;stroke-linecap:round;stroke-linejoin:miter;stroke-miterlimit:4;stroke-dasharray:none;stroke-opacity:1"
             sodipodi:nodetypes="csc" />
          <circle
             style="opacity:1;fill:#db0000;fill-opacity:1;stroke:none;stroke-width:1;stroke-linecap:round;stroke-linejoin:miter;stroke-miterlimit:4;stroke-dasharray:none;stroke-dashoffset:0;stroke-opacity:1"
             id="circle25970"
             cx="106.07143"
             cy="289.86221"
             r="7.5" />
        </g>
      </g>
      <g
         id="g25999"
         transform="translate(-6.8839917,-242.95989)">
        <g
           transform="matrix(0.3481678,0,0,0.3481678,58.51858,218.07393)"
           id="g26001">
          <path
             style="fill:none;fill-rule:evenodd;stroke:#000000;stroke-width:3.70000005;stroke-linecap:round;stroke-linejoin:miter;stroke-miterlimit:4;stroke-dasharray:none;stroke-opacity:1"
             d="m 108.33886,283.63612 c 0,0 5.55584,-7.82869 5.3033,-16.92006 -0.25254,-9.09137 -2.52538,-21.2132 -2.52538,-21.2132"
             id="path26003"
             inkscape:connector-curvature="0"
             sodipodi:nodetypes="csc" />
          <path
             inkscape:connector-curvature="0"
             id="path26005"
             d="m 103.13621,283.63612 c 0,0 -5.555838,-7.82869 -5.303298,-16.92006 0.25254,-9.09137 3.535528,-21.71828 3.535528,-21.71828"
             style="fill:none;fill-rule:evenodd;stroke:#000000;stroke-width:3.70000005;stroke-linecap:round;stroke-linejoin:miter;stroke-miterlimit:4;stroke-dasharray:none;stroke-opacity:1"
             sodipodi:nodetypes="csc" />
          <circle
             style="opacity:1;fill:#db0000;fill-opacity:1;stroke:none;stroke-width:1;stroke-linecap:round;stroke-linejoin:miter;stroke-miterlimit:4;stroke-dasharray:none;stroke-dashoffset:0;stroke-opacity:1"
             id="circle26007"
             cx="106.07143"
             cy="289.86221"
             r="7.5" />
        </g>
        <g
           id="g26009"
           transform="matrix(0.3481678,0,0,-0.3481678,58.51858,386.61036)">
          <path
             sodipodi:nodetypes="csc"
             inkscape:connector-curvature="0"
             id="path26011"
             d="m 108.33886,283.63612 c 0,0 5.55584,-7.82869 5.3033,-16.92006 -0.25254,-9.09137 -2.52538,-21.2132 -2.52538,-21.2132"
             style="fill:none;fill-rule:evenodd;stroke:#000000;stroke-width:3.70000005;stroke-linecap:round;stroke-linejoin:miter;stroke-miterlimit:4;stroke-dasharray:none;stroke-opacity:1" />
          <path
             sodipodi:nodetypes="csc"
             style="fill:none;fill-rule:evenodd;stroke:#000000;stroke-width:3.70000005;stroke-linecap:round;stroke-linejoin:miter;stroke-miterlimit:4;stroke-dasharray:none;stroke-opacity:1"
             d="m 103.13621,283.63612 c 0,0 -5.555838,-7.82869 -5.303298,-16.92006 0.25254,-9.09137 3.535528,-21.71828 3.535528,-21.71828"
             id="path26013"
             inkscape:connector-curvature="0" />
          <circle
             r="7.5"
             cy="289.86221"
             cx="106.07143"
             id="circle26015"
             style="opacity:1;fill:#db0000;fill-opacity:1;stroke:none;stroke-width:1;stroke-linecap:round;stroke-linejoin:miter;stroke-miterlimit:4;stroke-dasharray:none;stroke-dashoffset:0;stroke-opacity:1" />
        </g>
      </g>
      <g
         transform="translate(-0.75726667,-242.95989)"
         id="g26017">
        <g
           id="g26019"
           transform="matrix(0.3481678,0,0,0.3481678,58.51858,218.07393)">
          <path
             sodipodi:nodetypes="csc"
             inkscape:connector-curvature="0"
             id="path26021"
             d="m 108.33886,283.63612 c 0,0 5.55584,-7.82869 5.3033,-16.92006 -0.25254,-9.09137 -2.52538,-21.2132 -2.52538,-21.2132"
             style="fill:none;fill-rule:evenodd;stroke:#000000;stroke-width:3.70000005;stroke-linecap:round;stroke-linejoin:miter;stroke-miterlimit:4;stroke-dasharray:none;stroke-opacity:1" />
          <path
             sodipodi:nodetypes="csc"
             style="fill:none;fill-rule:evenodd;stroke:#000000;stroke-width:3.70000005;stroke-linecap:round;stroke-linejoin:miter;stroke-miterlimit:4;stroke-dasharray:none;stroke-opacity:1"
             d="m 103.13621,283.63612 c 0,0 -5.555838,-7.82869 -5.303298,-16.92006 0.25254,-9.09137 3.535528,-21.71828 3.535528,-21.71828"
             id="path26023"
             inkscape:connector-curvature="0" />
          <circle
             r="7.5"
             cy="289.86221"
             cx="106.07143"
             id="circle26025"
             style="opacity:1;fill:#db0000;fill-opacity:1;stroke:none;stroke-width:1;stroke-linecap:round;stroke-linejoin:miter;stroke-miterlimit:4;stroke-dasharray:none;stroke-dashoffset:0;stroke-opacity:1" />
        </g>
        <g
           transform="matrix(0.3481678,0,0,-0.3481678,58.51858,386.61036)"
           id="g26027">
          <path
             style="fill:none;fill-rule:evenodd;stroke:#000000;stroke-width:3.70000005;stroke-linecap:round;stroke-linejoin:miter;stroke-miterlimit:4;stroke-dasharray:none;stroke-opacity:1"
             d="m 108.33886,283.63612 c 0,0 5.55584,-7.82869 5.3033,-16.92006 -0.25254,-9.09137 -2.52538,-21.2132 -2.52538,-21.2132"
             id="path26029"
             inkscape:connector-curvature="0"
             sodipodi:nodetypes="csc" />
          <path
             inkscape:connector-curvature="0"
             id="path26031"
             d="m 103.13621,283.63612 c 0,0 -5.555838,-7.82869 -5.303298,-16.92006 0.25254,-9.09137 3.535528,-21.71828 3.535528,-21.71828"
             style="fill:none;fill-rule:evenodd;stroke:#000000;stroke-width:3.70000005;stroke-linecap:round;stroke-linejoin:miter;stroke-miterlimit:4;stroke-dasharray:none;stroke-opacity:1"
             sodipodi:nodetypes="csc" />
          <circle
             style="opacity:1;fill:#db0000;fill-opacity:1;stroke:none;stroke-width:1;stroke-linecap:round;stroke-linejoin:miter;stroke-miterlimit:4;stroke-dasharray:none;stroke-dashoffset:0;stroke-opacity:1"
             id="circle26033"
             cx="106.07143"
             cy="289.86221"
             r="7.5" />
        </g>
      </g>
      <g
         transform="translate(5.3694583,-242.95989)"
         id="g26035">
        <g
           id="g26037"
           transform="matrix(0.3481678,0,0,0.3481678,58.51858,218.07393)">
          <path
             sodipodi:nodetypes="csc"
             inkscape:connector-curvature="0"
             id="path26039"
             d="m 108.33886,283.63612 c 0,0 5.55584,-7.82869 5.3033,-16.92006 -0.25254,-9.09137 -2.52538,-21.2132 -2.52538,-21.2132"
             style="fill:none;fill-rule:evenodd;stroke:#000000;stroke-width:3.70000005;stroke-linecap:round;stroke-linejoin:miter;stroke-miterlimit:4;stroke-dasharray:none;stroke-opacity:1" />
          <path
             sodipodi:nodetypes="csc"
             style="fill:none;fill-rule:evenodd;stroke:#000000;stroke-width:3.70000005;stroke-linecap:round;stroke-linejoin:miter;stroke-miterlimit:4;stroke-dasharray:none;stroke-opacity:1"
             d="m 103.13621,283.63612 c 0,0 -5.555838,-7.82869 -5.303298,-16.92006 0.25254,-9.09137 3.535528,-21.71828 3.535528,-21.71828"
             id="path26041"
             inkscape:connector-curvature="0" />
          <circle
             r="7.5"
             cy="289.86221"
             cx="106.07143"
             id="circle26043"
             style="opacity:1;fill:#db0000;fill-opacity:1;stroke:none;stroke-width:1;stroke-linecap:round;stroke-linejoin:miter;stroke-miterlimit:4;stroke-dasharray:none;stroke-dashoffset:0;stroke-opacity:1" />
        </g>
        <g
           transform="matrix(0.3481678,0,0,-0.3481678,58.51858,386.61036)"
           id="g26045">
          <path
             style="fill:none;fill-rule:evenodd;stroke:#000000;stroke-width:3.70000005;stroke-linecap:round;stroke-linejoin:miter;stroke-miterlimit:4;stroke-dasharray:none;stroke-opacity:1"
             d="m 108.33886,283.63612 c 0,0 5.55584,-7.82869 5.3033,-16.92006 -0.25254,-9.09137 -2.52538,-21.2132 -2.52538,-21.2132"
             id="path26047"
             inkscape:connector-curvature="0"
             sodipodi:nodetypes="csc" />
          <path
             inkscape:connector-curvature="0"
             id="path26049"
             d="m 103.13621,283.63612 c 0,0 -5.555838,-7.82869 -5.303298,-16.92006 0.25254,-9.09137 3.535528,-21.71828 3.535528,-21.71828"
             style="fill:none;fill-rule:evenodd;stroke:#000000;stroke-width:3.70000005;stroke-linecap:round;stroke-linejoin:miter;stroke-miterlimit:4;stroke-dasharray:none;stroke-opacity:1"
             sodipodi:nodetypes="csc" />
          <circle
             style="opacity:1;fill:#db0000;fill-opacity:1;stroke:none;stroke-width:1;stroke-linecap:round;stroke-linejoin:miter;stroke-miterlimit:4;stroke-dasharray:none;stroke-dashoffset:0;stroke-opacity:1"
             id="circle26051"
             cx="106.07143"
             cy="289.86221"
             r="7.5" />
        </g>
      </g>
      <g
         id="g26053"
         transform="translate(11.496183,-242.95989)">
        <g
           transform="matrix(0.3481678,0,0,0.3481678,58.51858,218.07393)"
           id="g26055">
          <path
             style="fill:none;fill-rule:evenodd;stroke:#000000;stroke-width:3.70000005;stroke-linecap:round;stroke-linejoin:miter;stroke-miterlimit:4;stroke-dasharray:none;stroke-opacity:1"
             d="m 108.33886,283.63612 c 0,0 5.55584,-7.82869 5.3033,-16.92006 -0.25254,-9.09137 -2.52538,-21.2132 -2.52538,-21.2132"
             id="path26057"
             inkscape:connector-curvature="0"
             sodipodi:nodetypes="csc" />
          <path
             inkscape:connector-curvature="0"
             id="path26059"
             d="m 103.13621,283.63612 c 0,0 -5.555838,-7.82869 -5.303298,-16.92006 0.25254,-9.09137 3.535528,-21.71828 3.535528,-21.71828"
             style="fill:none;fill-rule:evenodd;stroke:#000000;stroke-width:3.70000005;stroke-linecap:round;stroke-linejoin:miter;stroke-miterlimit:4;stroke-dasharray:none;stroke-opacity:1"
             sodipodi:nodetypes="csc" />
          <circle
             style="opacity:1;fill:#db0000;fill-opacity:1;stroke:none;stroke-width:1;stroke-linecap:round;stroke-linejoin:miter;stroke-miterlimit:4;stroke-dasharray:none;stroke-dashoffset:0;stroke-opacity:1"
             id="circle26061"
             cx="106.07143"
             cy="289.86221"
             r="7.5" />
        </g>
        <g
           id="g26063"
           transform="matrix(0.3481678,0,0,-0.3481678,58.51858,386.61036)">
          <path
             sodipodi:nodetypes="csc"
             inkscape:connector-curvature="0"
             id="path26065"
             d="m 108.33886,283.63612 c 0,0 5.55584,-7.82869 5.3033,-16.92006 -0.25254,-9.09137 -2.52538,-21.2132 -2.52538,-21.2132"
             style="fill:none;fill-rule:evenodd;stroke:#000000;stroke-width:3.70000005;stroke-linecap:round;stroke-linejoin:miter;stroke-miterlimit:4;stroke-dasharray:none;stroke-opacity:1" />
          <path
             sodipodi:nodetypes="csc"
             style="fill:none;fill-rule:evenodd;stroke:#000000;stroke-width:3.70000005;stroke-linecap:round;stroke-linejoin:miter;stroke-miterlimit:4;stroke-dasharray:none;stroke-opacity:1"
             d="m 103.13621,283.63612 c 0,0 -5.555838,-7.82869 -5.303298,-16.92006 0.25254,-9.09137 3.535528,-21.71828 3.535528,-21.71828"
             id="path26067"
             inkscape:connector-curvature="0" />
          <circle
             r="7.5"
             cy="289.86221"
             cx="106.07143"
             id="circle26069"
             style="opacity:1;fill:#db0000;fill-opacity:1;stroke:none;stroke-width:1;stroke-linecap:round;stroke-linejoin:miter;stroke-miterlimit:4;stroke-dasharray:none;stroke-dashoffset:0;stroke-opacity:1" />
        </g>
      </g>
    </g>
    <g
       id="g70795">
      <path
         style="fill:#fbff91;fill-opacity:1;fill-rule:evenodd;stroke:#000000;stroke-width:1px;stroke-linecap:butt;stroke-linejoin:miter;stroke-opacity:1"
         d="m 53.769848,41.10679 0,37.07305 9.7359,0 c 0,0 -1.6019,-8.9942 -1.73714,-12.38179 -0.12462,-3.12124 -0.90555,-9.93828 0.60968,-13.22128 1.51523,-3.28299 7.341841,-1.42512 7.341841,-7.24221 0,-4.24703 -6.627551,-4.17322 -6.627551,-4.17322 z"
         id="poreLeft"
         inkscape:connector-curvature="0"
         sodipodi:nodetypes="cccssscc" />
      <path
         sodipodi:nodetypes="cccssscc"
         inkscape:connector-curvature="0"
         id="poreRight"
         d="m 85.791268,41.10679 0,37.07305 -9.7359,0 c 0,0 1.6019,-8.9942 1.73714,-12.38179 0.12462,-3.12124 0.90555,-9.93828 -0.60968,-13.22128 -1.51523,-3.28299 -7.34155,-1.42512 -7.34155,-7.24221 0,-4.24703 6.62726,-4.17322 6.62726,-4.17322 z"
         style="fill:#fbff91;fill-opacity:1;fill-rule:evenodd;stroke:#000000;stroke-width:1px;stroke-linecap:butt;stroke-linejoin:miter;stroke-opacity:1" />
      <path
         style="fill:#c8c8c8;fill-opacity:1;fill-rule:evenodd;stroke:#000000;stroke-width:1px;stroke-linecap:butt;stroke-linejoin:miter;stroke-opacity:1"
         d="m 53.769846,78.17984 9.735899,0 c 0,0 2.062213,-3.510467 6.102826,-3.447343 4.040607,0.0631 6.446795,3.447346 6.446795,3.447346 l 9.735906,-6e-6 -1e-6,1.982231 -32.021425,5e-6 z"
         id="poreLid"
         inkscape:connector-curvature="0"
         sodipodi:nodetypes="ccsccccc"
         inkscape:transform-center-x="-16.051957"
         inkscape:transform-center-y="-0.71026265" />
    </g>
    <g
       id="ions">
      <circle
         r="2.0203052"
         cy="26.641937"
         cx="50.857616"
         id="fnaI_0"
         style="opacity:1;fill:#fbff91;fill-opacity:1;stroke:#000000;stroke-width:1;stroke-linecap:round;stroke-linejoin:miter;stroke-miterlimit:4;stroke-dasharray:none;stroke-dashoffset:0;stroke-opacity:1" />
      <circle
         style="opacity:1;fill:#fbff91;fill-opacity:1;stroke:#000000;stroke-width:1;stroke-linecap:round;stroke-linejoin:miter;stroke-miterlimit:4;stroke-dasharray:none;stroke-dashoffset:0;stroke-opacity:1"
         id="fnaI_1"
         cx="64.242134"
         cy="28.535973"
         r="2.0203052" />
      <circle
         r="2.0203052"
         cy="18.18191"
         cx="71.818275"
         id="fnaI_2"
         style="opacity:1;fill:#fbff91;fill-opacity:1;stroke:#000000;stroke-width:1;stroke-linecap:round;stroke-linejoin:miter;stroke-miterlimit:4;stroke-dasharray:none;stroke-dashoffset:0;stroke-opacity:1" />
      <circle
         r="2.0203052"
         style="opacity:1;fill:#fbff91;fill-opacity:1;stroke:#000000;stroke-width:1;stroke-linecap:round;stroke-linejoin:miter;stroke-miterlimit:4;stroke-dasharray:none;stroke-dashoffset:0;stroke-opacity:1"
         id="fnaI_3"
         cx="79.646957"
         cy="28.283436" />
      <circle
         cy="24.747902"
         cx="92.526405"
         id="fnaI_4"
         style="opacity:1;fill:#fbff91;fill-opacity:1;stroke:#000000;stroke-width:1;stroke-linecap:round;stroke-linejoin:miter;stroke-miterlimit:4;stroke-dasharray:none;stroke-dashoffset:0;stroke-opacity:1"
         r="2.0203052" />
      <circle
         r="2.0203052"
         style="opacity:1;fill:#fbff91;fill-opacity:1;stroke:#000000;stroke-width:1;stroke-linecap:round;stroke-linejoin:miter;stroke-miterlimit:4;stroke-dasharray:none;stroke-dashoffset:0;stroke-opacity:1"
         id="fnaI_5i"
         cx="82.927292"
         cy="94.958992" />
      <circle
         cy="91.170921"
         cx="63.734394"
         id="fnaI_6i"
         style="opacity:1;fill:#fbff91;fill-opacity:1;stroke:#000000;stroke-width:1;stroke-linecap:round;stroke-linejoin:miter;stroke-miterlimit:4;stroke-dasharray:none;stroke-dashoffset:0;stroke-opacity:1"
         r="2.0203052" />
    </g>
  </g>
  <g
     inkscape:groupmode="layer"
     id="layer2"
     inkscape:label="Hidden"
     style="display:inline">
    <path
       sodipodi:nodetypes="cccssscc"
       inkscape:connector-curvature="0"
       id="poreLeftOpen"
       d="m 53.769849,41.106787 0,37.07305 9.7359,0 c 0,0 -1.6019,-8.9942 -1.73714,-12.38179 -0.12462,-3.12124 -0.90555,-9.93828 0.60968,-13.22128 1.51523,-3.28299 1.62726,-1.42512 1.62726,-7.24221 0,-4.24703 -0.91297,-4.17322 -0.91297,-4.17322 z"
       style="fill:#fbff91;fill-opacity:1;fill-rule:evenodd;stroke:#000000;stroke-width:1px;stroke-linecap:butt;stroke-linejoin:miter;stroke-opacity:1" />
    <path
       style="fill:#fbff91;fill-opacity:1;fill-rule:evenodd;stroke:#000000;stroke-width:1px;stroke-linecap:butt;stroke-linejoin:miter;stroke-opacity:1"
       d="m 85.791269,41.106787 0,37.073053 -9.7359,0 c 0,0 1.6019,-8.9942 1.73714,-12.38179 0.12462,-3.12124 0.90555,-9.938283 -0.60968,-13.221283 -1.51523,-3.28299 -1.39156,-1.42512 -1.39156,-7.24221 0,-4.24703 0.67727,-4.17322 0.67727,-4.17322 z"
       id="poreRightOpen"
       inkscape:connector-curvature="0"
       sodipodi:nodetypes="cccssscc" />
    <path
       style="fill:none;fill-rule:evenodd;stroke:#000000;stroke-width:1px;stroke-linecap:butt;stroke-linejoin:miter;stroke-opacity:1"
       d="m 50.851987,26.632805 c 0,0 13.75,5.714286 14.821428,8.214286 1.071429,2.5 2.321429,13.928571 1.964286,16.964285 -0.357143,3.035715 0,13.035715 0,16.25 0,3.214286 1.785714,17.678572 0,19.285715 -1.785714,1.607142 -9.285714,7.499995 -14.285714,10.357145 -5,2.857144 -6.607143,1.071425 -6.607143,1.071425"
       id="fnaIp_0"
       inkscape:connector-curvature="0"
       sodipodi:nodetypes="csssssc" />
    <path
       style="fill:none;fill-rule:evenodd;stroke:#000000;stroke-width:1px;stroke-linecap:butt;stroke-linejoin:miter;stroke-opacity:1"
       d="m 64.423416,28.775662 c 0,0 5.357142,6.785715 5.892857,13.392857 0.535714,6.607143 3.064088,17.421498 2.857142,21.25 -0.357143,6.607143 0.178572,16.964286 -1.607142,22.5 -1.785715,5.535714 -2.986945,12.119956 -8.571429,17.500001 -4.321075,4.16288 -10.357143,7.5 -10.357143,7.5"
       id="fnaIp_1"
       inkscape:connector-curvature="0"
       sodipodi:nodetypes="cssssc" />
    <path
       style="fill:none;fill-rule:evenodd;stroke:#000000;stroke-width:1px;stroke-linecap:butt;stroke-linejoin:miter;stroke-opacity:1"
       d="m 79.601987,28.239948 c 0,0 -5.535714,1.428571 -7.321429,5.892857 -1.785714,4.464286 -5,16.428571 -5.892857,21.071429 -0.892857,4.642857 -0.714286,17.321428 0.178572,19.642857 0.892857,2.321428 5.892857,10.535714 8.571428,12.857142 2.678571,2.321429 11.607143,3.928573 11.607143,3.928573"
       id="fnaIp_3"
       inkscape:connector-curvature="0"
       sodipodi:nodetypes="cssssc" />
    <path
       style="fill:none;fill-rule:evenodd;stroke:#000000;stroke-width:1px;stroke-linecap:butt;stroke-linejoin:miter;stroke-opacity:1"
       d="m 92.816272,24.668518 c 0,0 -16.428571,5.178572 -18.749999,12.142858 -2.321429,6.964285 -5,14.285714 -4.464286,19.642857 0.535714,5.357142 -0.714286,23.928571 3.392857,36.071432 4.107143,12.142845 9.642857,16.249995 9.642857,16.249995"
       id="fnaIp_4"
       inkscape:connector-curvature="0"
       sodipodi:nodetypes="csssc" />
    <path
       style="fill:none;fill-rule:evenodd;stroke:#000000;stroke-width:1px;stroke-linecap:butt;stroke-linejoin:miter;stroke-opacity:1"
       d="m 71.566272,18.418519 c 0,0 -6.607142,58.928571 -6.071428,60.178571 0.535714,1.25 7.678571,21.78571 7.678571,21.78571"
       id="fnaIp_2"
       inkscape:connector-curvature="0"
       sodipodi:nodetypes="csc" />
  </g>
</svg>
