<?xml version="1.0" encoding="UTF-8" standalone="no"?>
<!-- Created with Inkscape (http://www.inkscape.org/) -->

<svg
   xmlns:dc="http://purl.org/dc/elements/1.1/"
   xmlns:cc="http://creativecommons.org/ns#"
   xmlns:rdf="http://www.w3.org/1999/02/22-rdf-syntax-ns#"
   xmlns:svg="http://www.w3.org/2000/svg"
   xmlns="http://www.w3.org/2000/svg"
   xmlns:sodipodi="http://sodipodi.sourceforge.net/DTD/sodipodi-0.dtd"
   xmlns:inkscape="http://www.inkscape.org/namespaces/inkscape"
   width="32.945435mm"
   height="29.839289mm"
   viewBox="0 0 116.73579 105.72976"
   id="svg12251"
   version="1.1"
   inkscape:version="0.91 r13725"
   sodipodi:docname="ion_channels_potassium_leak.svg">
  <defs
     id="defs12253">
    <marker
       inkscape:stockid="TriangleOutM"
       orient="auto"
       refY="0"
       refX="0"
       id="TriangleOutM"
       style="overflow:visible"
       inkscape:isstock="true">
      <path
         id="path14013"
         d="m 5.77,0 -8.65,5 0,-10 8.65,5 z"
         style="fill:#000000;fill-opacity:1;fill-rule:evenodd;stroke:#000000;stroke-width:1pt;stroke-opacity:1"
         transform="scale(0.4,0.4)"
         inkscape:connector-curvature="0" />
    </marker>
  </defs>
  <sodipodi:namedview
     id="base"
     pagecolor="#ffffff"
     bordercolor="#666666"
     borderopacity="1.0"
     inkscape:pageopacity="0.0"
     inkscape:pageshadow="2"
     inkscape:zoom="2.8"
     inkscape:cx="33.875358"
     inkscape:cy="68.676895"
     inkscape:document-units="px"
     inkscape:current-layer="layer1"
     showgrid="false"
     inkscape:window-width="1920"
     inkscape:window-height="1178"
     inkscape:window-x="2792"
     inkscape:window-y="712"
     inkscape:window-maximized="1"
     inkscape:snap-bbox="true"
     inkscape:bbox-paths="true"
     inkscape:bbox-nodes="true"
     inkscape:snap-bbox-edge-midpoints="true"
     inkscape:snap-bbox-midpoints="true"
     inkscape:object-paths="true"
     inkscape:snap-intersection-paths="true"
     inkscape:object-nodes="true"
     inkscape:snap-smooth-nodes="true"
     inkscape:snap-midpoints="true"
     inkscape:snap-object-midpoints="true"
     inkscape:snap-center="true"
     inkscape:snap-text-baseline="true"
     inkscape:snap-global="false"
     fit-margin-left="5"
     fit-margin-top="5"
     fit-margin-bottom="5"
     fit-margin-right="5" />
  <metadata
     id="metadata12256">
    <rdf:RDF>
      <cc:Work
         rdf:about="">
        <dc:format>image/svg+xml</dc:format>
        <dc:type
           rdf:resource="http://purl.org/dc/dcmitype/StillImage" />
        <dc:title></dc:title>
      </cc:Work>
    </rdf:RDF>
  </metadata>
  <g
     inkscape:label="Ebene 1"
     inkscape:groupmode="layer"
     id="layer1"
     transform="translate(-20.203533,-28.074238)">
    <g
       transform="translate(8.994404,13.694234)"
       id="g26071">
      <g
         transform="translate(-63.008104,-242.95989)"
         id="g4166">
        <g
           id="g4150"
           transform="matrix(0.3481678,0,0,0.3481678,58.51858,218.07393)">
          <path
             sodipodi:nodetypes="csc"
             inkscape:connector-curvature="0"
             id="path4152"
             d="m 108.33886,283.63612 c 0,0 5.55584,-7.82869 5.3033,-16.92006 -0.25254,-9.09137 -2.52538,-21.2132 -2.52538,-21.2132"
             style="fill:none;fill-rule:evenodd;stroke:#000000;stroke-width:3.70000005;stroke-linecap:round;stroke-linejoin:miter;stroke-miterlimit:4;stroke-dasharray:none;stroke-opacity:1" />
          <path
             sodipodi:nodetypes="csc"
             style="fill:none;fill-rule:evenodd;stroke:#000000;stroke-width:3.70000005;stroke-linecap:round;stroke-linejoin:miter;stroke-miterlimit:4;stroke-dasharray:none;stroke-opacity:1"
             d="m 103.13621,283.63612 c 0,0 -5.555838,-7.82869 -5.303298,-16.92006 0.25254,-9.09137 3.535528,-21.71828 3.535528,-21.71828"
             id="path4154"
             inkscape:connector-curvature="0" />
          <circle
             r="7.5"
             cy="289.86221"
             cx="106.07143"
             id="circle4156"
             style="opacity:1;fill:#db0000;fill-opacity:1;stroke:none;stroke-width:1;stroke-linecap:round;stroke-linejoin:miter;stroke-miterlimit:4;stroke-dasharray:none;stroke-dashoffset:0;stroke-opacity:1" />
        </g>
        <g
           transform="matrix(0.3481678,0,0,-0.3481678,58.51858,386.61036)"
           id="g4158">
          <path
             style="fill:none;fill-rule:evenodd;stroke:#000000;stroke-width:3.70000005;stroke-linecap:round;stroke-linejoin:miter;stroke-miterlimit:4;stroke-dasharray:none;stroke-opacity:1"
             d="m 108.33886,283.63612 c 0,0 5.55584,-7.82869 5.3033,-16.92006 -0.25254,-9.09137 -2.52538,-21.2132 -2.52538,-21.2132"
             id="path4160"
             inkscape:connector-curvature="0"
             sodipodi:nodetypes="csc" />
          <path
             inkscape:connector-curvature="0"
             id="path4162"
             d="m 103.13621,283.63612 c 0,0 -5.555838,-7.82869 -5.303298,-16.92006 0.25254,-9.09137 3.535528,-21.71828 3.535528,-21.71828"
             style="fill:none;fill-rule:evenodd;stroke:#000000;stroke-width:3.70000005;stroke-linecap:round;stroke-linejoin:miter;stroke-miterlimit:4;stroke-dasharray:none;stroke-opacity:1"
             sodipodi:nodetypes="csc" />
          <circle
             style="opacity:1;fill:#db0000;fill-opacity:1;stroke:none;stroke-width:1;stroke-linecap:round;stroke-linejoin:miter;stroke-miterlimit:4;stroke-dasharray:none;stroke-dashoffset:0;stroke-opacity:1"
             id="circle4164"
             cx="106.07143"
             cy="289.86221"
             r="7.5" />
        </g>
      </g>
      <g
         id="g25918"
         transform="translate(-56.881379,-242.95989)">
        <g
           transform="matrix(0.3481678,0,0,0.3481678,58.51858,218.07393)"
           id="g25920">
          <path
             style="fill:none;fill-rule:evenodd;stroke:#000000;stroke-width:3.70000005;stroke-linecap:round;stroke-linejoin:miter;stroke-miterlimit:4;stroke-dasharray:none;stroke-opacity:1"
             d="m 108.33886,283.63612 c 0,0 5.55584,-7.82869 5.3033,-16.92006 -0.25254,-9.09137 -2.52538,-21.2132 -2.52538,-21.2132"
             id="path25922"
             inkscape:connector-curvature="0"
             sodipodi:nodetypes="csc" />
          <path
             inkscape:connector-curvature="0"
             id="path25924"
             d="m 103.13621,283.63612 c 0,0 -5.555838,-7.82869 -5.303298,-16.92006 0.25254,-9.09137 3.535528,-21.71828 3.535528,-21.71828"
             style="fill:none;fill-rule:evenodd;stroke:#000000;stroke-width:3.70000005;stroke-linecap:round;stroke-linejoin:miter;stroke-miterlimit:4;stroke-dasharray:none;stroke-opacity:1"
             sodipodi:nodetypes="csc" />
          <circle
             style="opacity:1;fill:#db0000;fill-opacity:1;stroke:none;stroke-width:1;stroke-linecap:round;stroke-linejoin:miter;stroke-miterlimit:4;stroke-dasharray:none;stroke-dashoffset:0;stroke-opacity:1"
             id="circle25926"
             cx="106.07143"
             cy="289.86221"
             r="7.5" />
        </g>
        <g
           id="g25928"
           transform="matrix(0.3481678,0,0,-0.3481678,58.51858,386.61036)">
          <path
             sodipodi:nodetypes="csc"
             inkscape:connector-curvature="0"
             id="path25930"
             d="m 108.33886,283.63612 c 0,0 5.55584,-7.82869 5.3033,-16.92006 -0.25254,-9.09137 -2.52538,-21.2132 -2.52538,-21.2132"
             style="fill:none;fill-rule:evenodd;stroke:#000000;stroke-width:3.70000005;stroke-linecap:round;stroke-linejoin:miter;stroke-miterlimit:4;stroke-dasharray:none;stroke-opacity:1" />
          <path
             sodipodi:nodetypes="csc"
             style="fill:none;fill-rule:evenodd;stroke:#000000;stroke-width:3.70000005;stroke-linecap:round;stroke-linejoin:miter;stroke-miterlimit:4;stroke-dasharray:none;stroke-opacity:1"
             d="m 103.13621,283.63612 c 0,0 -5.555838,-7.82869 -5.303298,-16.92006 0.25254,-9.09137 3.535528,-21.71828 3.535528,-21.71828"
             id="path25932"
             inkscape:connector-curvature="0" />
          <circle
             r="7.5"
             cy="289.86221"
             cx="106.07143"
             id="circle25934"
             style="opacity:1;fill:#db0000;fill-opacity:1;stroke:none;stroke-width:1;stroke-linecap:round;stroke-linejoin:miter;stroke-miterlimit:4;stroke-dasharray:none;stroke-dashoffset:0;stroke-opacity:1" />
        </g>
      </g>
      <g
         id="g25936"
         transform="translate(-50.754654,-242.95989)">
        <g
           transform="matrix(0.3481678,0,0,0.3481678,58.51858,218.07393)"
           id="g25938">
          <path
             style="fill:none;fill-rule:evenodd;stroke:#000000;stroke-width:3.70000005;stroke-linecap:round;stroke-linejoin:miter;stroke-miterlimit:4;stroke-dasharray:none;stroke-opacity:1"
             d="m 108.33886,283.63612 c 0,0 5.55584,-7.82869 5.3033,-16.92006 -0.25254,-9.09137 -2.52538,-21.2132 -2.52538,-21.2132"
             id="path25940"
             inkscape:connector-curvature="0"
             sodipodi:nodetypes="csc" />
          <path
             inkscape:connector-curvature="0"
             id="path25942"
             d="m 103.13621,283.63612 c 0,0 -5.555838,-7.82869 -5.303298,-16.92006 0.25254,-9.09137 3.535528,-21.71828 3.535528,-21.71828"
             style="fill:none;fill-rule:evenodd;stroke:#000000;stroke-width:3.70000005;stroke-linecap:round;stroke-linejoin:miter;stroke-miterlimit:4;stroke-dasharray:none;stroke-opacity:1"
             sodipodi:nodetypes="csc" />
          <circle
             style="opacity:1;fill:#db0000;fill-opacity:1;stroke:none;stroke-width:1;stroke-linecap:round;stroke-linejoin:miter;stroke-miterlimit:4;stroke-dasharray:none;stroke-dashoffset:0;stroke-opacity:1"
             id="circle25944"
             cx="106.07143"
             cy="289.86221"
             r="7.5" />
        </g>
        <g
           id="g25946"
           transform="matrix(0.3481678,0,0,-0.3481678,58.51858,386.61036)">
          <path
             sodipodi:nodetypes="csc"
             inkscape:connector-curvature="0"
             id="path25948"
             d="m 108.33886,283.63612 c 0,0 5.55584,-7.82869 5.3033,-16.92006 -0.25254,-9.09137 -2.52538,-21.2132 -2.52538,-21.2132"
             style="fill:none;fill-rule:evenodd;stroke:#000000;stroke-width:3.70000005;stroke-linecap:round;stroke-linejoin:miter;stroke-miterlimit:4;stroke-dasharray:none;stroke-opacity:1" />
          <path
             sodipodi:nodetypes="csc"
             style="fill:none;fill-rule:evenodd;stroke:#000000;stroke-width:3.70000005;stroke-linecap:round;stroke-linejoin:miter;stroke-miterlimit:4;stroke-dasharray:none;stroke-opacity:1"
             d="m 103.13621,283.63612 c 0,0 -5.555838,-7.82869 -5.303298,-16.92006 0.25254,-9.09137 3.535528,-21.71828 3.535528,-21.71828"
             id="path25950"
             inkscape:connector-curvature="0" />
          <circle
             r="7.5"
             cy="289.86221"
             cx="106.07143"
             id="circle25952"
             style="opacity:1;fill:#db0000;fill-opacity:1;stroke:none;stroke-width:1;stroke-linecap:round;stroke-linejoin:miter;stroke-miterlimit:4;stroke-dasharray:none;stroke-dashoffset:0;stroke-opacity:1" />
        </g>
      </g>
      <g
         transform="translate(-44.627929,-242.95989)"
         id="g25954">
        <g
           id="g25956"
           transform="matrix(0.3481678,0,0,0.3481678,58.51858,218.07393)">
          <path
             sodipodi:nodetypes="csc"
             inkscape:connector-curvature="0"
             id="path25958"
             d="m 108.33886,283.63612 c 0,0 5.55584,-7.82869 5.3033,-16.92006 -0.25254,-9.09137 -2.52538,-21.2132 -2.52538,-21.2132"
             style="fill:none;fill-rule:evenodd;stroke:#000000;stroke-width:3.70000005;stroke-linecap:round;stroke-linejoin:miter;stroke-miterlimit:4;stroke-dasharray:none;stroke-opacity:1" />
          <path
             sodipodi:nodetypes="csc"
             style="fill:none;fill-rule:evenodd;stroke:#000000;stroke-width:3.70000005;stroke-linecap:round;stroke-linejoin:miter;stroke-miterlimit:4;stroke-dasharray:none;stroke-opacity:1"
             d="m 103.13621,283.63612 c 0,0 -5.555838,-7.82869 -5.303298,-16.92006 0.25254,-9.09137 3.535528,-21.71828 3.535528,-21.71828"
             id="path25960"
             inkscape:connector-curvature="0" />
          <circle
             r="7.5"
             cy="289.86221"
             cx="106.07143"
             id="circle25962"
             style="opacity:1;fill:#db0000;fill-opacity:1;stroke:none;stroke-width:1;stroke-linecap:round;stroke-linejoin:miter;stroke-miterlimit:4;stroke-dasharray:none;stroke-dashoffset:0;stroke-opacity:1" />
        </g>
        <g
           transform="matrix(0.3481678,0,0,-0.3481678,58.51858,386.61036)"
           id="g25964">
          <path
             style="fill:none;fill-rule:evenodd;stroke:#000000;stroke-width:3.70000005;stroke-linecap:round;stroke-linejoin:miter;stroke-miterlimit:4;stroke-dasharray:none;stroke-opacity:1"
             d="m 108.33886,283.63612 c 0,0 5.55584,-7.82869 5.3033,-16.92006 -0.25254,-9.09137 -2.52538,-21.2132 -2.52538,-21.2132"
             id="path25966"
             inkscape:connector-curvature="0"
             sodipodi:nodetypes="csc" />
          <path
             inkscape:connector-curvature="0"
             id="path25968"
             d="m 103.13621,283.63612 c 0,0 -5.555838,-7.82869 -5.303298,-16.92006 0.25254,-9.09137 3.535528,-21.71828 3.535528,-21.71828"
             style="fill:none;fill-rule:evenodd;stroke:#000000;stroke-width:3.70000005;stroke-linecap:round;stroke-linejoin:miter;stroke-miterlimit:4;stroke-dasharray:none;stroke-opacity:1"
             sodipodi:nodetypes="csc" />
          <circle
             style="opacity:1;fill:#db0000;fill-opacity:1;stroke:none;stroke-width:1;stroke-linecap:round;stroke-linejoin:miter;stroke-miterlimit:4;stroke-dasharray:none;stroke-dashoffset:0;stroke-opacity:1"
             id="circle25970"
             cx="106.07143"
             cy="289.86221"
             r="7.5" />
        </g>
      </g>
      <g
         id="g25999"
         transform="translate(-6.8839917,-242.95989)">
        <g
           transform="matrix(0.3481678,0,0,0.3481678,58.51858,218.07393)"
           id="g26001">
          <path
             style="fill:none;fill-rule:evenodd;stroke:#000000;stroke-width:3.70000005;stroke-linecap:round;stroke-linejoin:miter;stroke-miterlimit:4;stroke-dasharray:none;stroke-opacity:1"
             d="m 108.33886,283.63612 c 0,0 5.55584,-7.82869 5.3033,-16.92006 -0.25254,-9.09137 -2.52538,-21.2132 -2.52538,-21.2132"
             id="path26003"
             inkscape:connector-curvature="0"
             sodipodi:nodetypes="csc" />
          <path
             inkscape:connector-curvature="0"
             id="path26005"
             d="m 103.13621,283.63612 c 0,0 -5.555838,-7.82869 -5.303298,-16.92006 0.25254,-9.09137 3.535528,-21.71828 3.535528,-21.71828"
             style="fill:none;fill-rule:evenodd;stroke:#000000;stroke-width:3.70000005;stroke-linecap:round;stroke-linejoin:miter;stroke-miterlimit:4;stroke-dasharray:none;stroke-opacity:1"
             sodipodi:nodetypes="csc" />
          <circle
             style="opacity:1;fill:#db0000;fill-opacity:1;stroke:none;stroke-width:1;stroke-linecap:round;stroke-linejoin:miter;stroke-miterlimit:4;stroke-dasharray:none;stroke-dashoffset:0;stroke-opacity:1"
             id="circle26007"
             cx="106.07143"
             cy="289.86221"
             r="7.5" />
        </g>
        <g
           id="g26009"
           transform="matrix(0.3481678,0,0,-0.3481678,58.51858,386.61036)">
          <path
             sodipodi:nodetypes="csc"
             inkscape:connector-curvature="0"
             id="path26011"
             d="m 108.33886,283.63612 c 0,0 5.55584,-7.82869 5.3033,-16.92006 -0.25254,-9.09137 -2.52538,-21.2132 -2.52538,-21.2132"
             style="fill:none;fill-rule:evenodd;stroke:#000000;stroke-width:3.70000005;stroke-linecap:round;stroke-linejoin:miter;stroke-miterlimit:4;stroke-dasharray:none;stroke-opacity:1" />
          <path
             sodipodi:nodetypes="csc"
             style="fill:none;fill-rule:evenodd;stroke:#000000;stroke-width:3.70000005;stroke-linecap:round;stroke-linejoin:miter;stroke-miterlimit:4;stroke-dasharray:none;stroke-opacity:1"
             d="m 103.13621,283.63612 c 0,0 -5.555838,-7.82869 -5.303298,-16.92006 0.25254,-9.09137 3.535528,-21.71828 3.535528,-21.71828"
             id="path26013"
             inkscape:connector-curvature="0" />
          <circle
             r="7.5"
             cy="289.86221"
             cx="106.07143"
             id="circle26015"
             style="opacity:1;fill:#db0000;fill-opacity:1;stroke:none;stroke-width:1;stroke-linecap:round;stroke-linejoin:miter;stroke-miterlimit:4;stroke-dasharray:none;stroke-dashoffset:0;stroke-opacity:1" />
        </g>
      </g>
      <g
         transform="translate(-0.75726667,-242.95989)"
         id="g26017">
        <g
           id="g26019"
           transform="matrix(0.3481678,0,0,0.3481678,58.51858,218.07393)">
          <path
             sodipodi:nodetypes="csc"
             inkscape:connector-curvature="0"
             id="path26021"
             d="m 108.33886,283.63612 c 0,0 5.55584,-7.82869 5.3033,-16.92006 -0.25254,-9.09137 -2.52538,-21.2132 -2.52538,-21.2132"
             style="fill:none;fill-rule:evenodd;stroke:#000000;stroke-width:3.70000005;stroke-linecap:round;stroke-linejoin:miter;stroke-miterlimit:4;stroke-dasharray:none;stroke-opacity:1" />
          <path
             sodipodi:nodetypes="csc"
             style="fill:none;fill-rule:evenodd;stroke:#000000;stroke-width:3.70000005;stroke-linecap:round;stroke-linejoin:miter;stroke-miterlimit:4;stroke-dasharray:none;stroke-opacity:1"
             d="m 103.13621,283.63612 c 0,0 -5.555838,-7.82869 -5.303298,-16.92006 0.25254,-9.09137 3.535528,-21.71828 3.535528,-21.71828"
             id="path26023"
             inkscape:connector-curvature="0" />
          <circle
             r="7.5"
             cy="289.86221"
             cx="106.07143"
             id="circle26025"
             style="opacity:1;fill:#db0000;fill-opacity:1;stroke:none;stroke-width:1;stroke-linecap:round;stroke-linejoin:miter;stroke-miterlimit:4;stroke-dasharray:none;stroke-dashoffset:0;stroke-opacity:1" />
        </g>
        <g
           transform="matrix(0.3481678,0,0,-0.3481678,58.51858,386.61036)"
           id="g26027">
          <path
             style="fill:none;fill-rule:evenodd;stroke:#000000;stroke-width:3.70000005;stroke-linecap:round;stroke-linejoin:miter;stroke-miterlimit:4;stroke-dasharray:none;stroke-opacity:1"
             d="m 108.33886,283.63612 c 0,0 5.55584,-7.82869 5.3033,-16.92006 -0.25254,-9.09137 -2.52538,-21.2132 -2.52538,-21.2132"
             id="path26029"
             inkscape:connector-curvature="0"
             sodipodi:nodetypes="csc" />
          <path
             inkscape:connector-curvature="0"
             id="path26031"
             d="m 103.13621,283.63612 c 0,0 -5.555838,-7.82869 -5.303298,-16.92006 0.25254,-9.09137 3.535528,-21.71828 3.535528,-21.71828"
             style="fill:none;fill-rule:evenodd;stroke:#000000;stroke-width:3.70000005;stroke-linecap:round;stroke-linejoin:miter;stroke-miterlimit:4;stroke-dasharray:none;stroke-opacity:1"
             sodipodi:nodetypes="csc" />
          <circle
             style="opacity:1;fill:#db0000;fill-opacity:1;stroke:none;stroke-width:1;stroke-linecap:round;stroke-linejoin:miter;stroke-miterlimit:4;stroke-dasharray:none;stroke-dashoffset:0;stroke-opacity:1"
             id="circle26033"
             cx="106.07143"
             cy="289.86221"
             r="7.5" />
        </g>
      </g>
      <g
         transform="translate(5.3694583,-242.95989)"
         id="g26035">
        <g
           id="g26037"
           transform="matrix(0.3481678,0,0,0.3481678,58.51858,218.07393)">
          <path
             sodipodi:nodetypes="csc"
             inkscape:connector-curvature="0"
             id="path26039"
             d="m 108.33886,283.63612 c 0,0 5.55584,-7.82869 5.3033,-16.92006 -0.25254,-9.09137 -2.52538,-21.2132 -2.52538,-21.2132"
             style="fill:none;fill-rule:evenodd;stroke:#000000;stroke-width:3.70000005;stroke-linecap:round;stroke-linejoin:miter;stroke-miterlimit:4;stroke-dasharray:none;stroke-opacity:1" />
          <path
             sodipodi:nodetypes="csc"
             style="fill:none;fill-rule:evenodd;stroke:#000000;stroke-width:3.70000005;stroke-linecap:round;stroke-linejoin:miter;stroke-miterlimit:4;stroke-dasharray:none;stroke-opacity:1"
             d="m 103.13621,283.63612 c 0,0 -5.555838,-7.82869 -5.303298,-16.92006 0.25254,-9.09137 3.535528,-21.71828 3.535528,-21.71828"
             id="path26041"
             inkscape:connector-curvature="0" />
          <circle
             r="7.5"
             cy="289.86221"
             cx="106.07143"
             id="circle26043"
             style="opacity:1;fill:#db0000;fill-opacity:1;stroke:none;stroke-width:1;stroke-linecap:round;stroke-linejoin:miter;stroke-miterlimit:4;stroke-dasharray:none;stroke-dashoffset:0;stroke-opacity:1" />
        </g>
        <g
           transform="matrix(0.3481678,0,0,-0.3481678,58.51858,386.61036)"
           id="g26045">
          <path
             style="fill:none;fill-rule:evenodd;stroke:#000000;stroke-width:3.70000005;stroke-linecap:round;stroke-linejoin:miter;stroke-miterlimit:4;stroke-dasharray:none;stroke-opacity:1"
             d="m 108.33886,283.63612 c 0,0 5.55584,-7.82869 5.3033,-16.92006 -0.25254,-9.09137 -2.52538,-21.2132 -2.52538,-21.2132"
             id="path26047"
             inkscape:connector-curvature="0"
             sodipodi:nodetypes="csc" />
          <path
             inkscape:connector-curvature="0"
             id="path26049"
             d="m 103.13621,283.63612 c 0,0 -5.555838,-7.82869 -5.303298,-16.92006 0.25254,-9.09137 3.535528,-21.71828 3.535528,-21.71828"
             style="fill:none;fill-rule:evenodd;stroke:#000000;stroke-width:3.70000005;stroke-linecap:round;stroke-linejoin:miter;stroke-miterlimit:4;stroke-dasharray:none;stroke-opacity:1"
             sodipodi:nodetypes="csc" />
          <circle
             style="opacity:1;fill:#db0000;fill-opacity:1;stroke:none;stroke-width:1;stroke-linecap:round;stroke-linejoin:miter;stroke-miterlimit:4;stroke-dasharray:none;stroke-dashoffset:0;stroke-opacity:1"
             id="circle26051"
             cx="106.07143"
             cy="289.86221"
             r="7.5" />
        </g>
      </g>
      <g
         id="g26053"
         transform="translate(11.496183,-242.95989)">
        <g
           transform="matrix(0.3481678,0,0,0.3481678,58.51858,218.07393)"
           id="g26055">
          <path
             style="fill:none;fill-rule:evenodd;stroke:#000000;stroke-width:3.70000005;stroke-linecap:round;stroke-linejoin:miter;stroke-miterlimit:4;stroke-dasharray:none;stroke-opacity:1"
             d="m 108.33886,283.63612 c 0,0 5.55584,-7.82869 5.3033,-16.92006 -0.25254,-9.09137 -2.52538,-21.2132 -2.52538,-21.2132"
             id="path26057"
             inkscape:connector-curvature="0"
             sodipodi:nodetypes="csc" />
          <path
             inkscape:connector-curvature="0"
             id="path26059"
             d="m 103.13621,283.63612 c 0,0 -5.555838,-7.82869 -5.303298,-16.92006 0.25254,-9.09137 3.535528,-21.71828 3.535528,-21.71828"
             style="fill:none;fill-rule:evenodd;stroke:#000000;stroke-width:3.70000005;stroke-linecap:round;stroke-linejoin:miter;stroke-miterlimit:4;stroke-dasharray:none;stroke-opacity:1"
             sodipodi:nodetypes="csc" />
          <circle
             style="opacity:1;fill:#db0000;fill-opacity:1;stroke:none;stroke-width:1;stroke-linecap:round;stroke-linejoin:miter;stroke-miterlimit:4;stroke-dasharray:none;stroke-dashoffset:0;stroke-opacity:1"
             id="circle26061"
             cx="106.07143"
             cy="289.86221"
             r="7.5" />
        </g>
        <g
           id="g26063"
           transform="matrix(0.3481678,0,0,-0.3481678,58.51858,386.61036)">
          <path
             sodipodi:nodetypes="csc"
             inkscape:connector-curvature="0"
             id="path26065"
             d="m 108.33886,283.63612 c 0,0 5.55584,-7.82869 5.3033,-16.92006 -0.25254,-9.09137 -2.52538,-21.2132 -2.52538,-21.2132"
             style="fill:none;fill-rule:evenodd;stroke:#000000;stroke-width:3.70000005;stroke-linecap:round;stroke-linejoin:miter;stroke-miterlimit:4;stroke-dasharray:none;stroke-opacity:1" />
          <path
             sodipodi:nodetypes="csc"
             style="fill:none;fill-rule:evenodd;stroke:#000000;stroke-width:3.70000005;stroke-linecap:round;stroke-linejoin:miter;stroke-miterlimit:4;stroke-dasharray:none;stroke-opacity:1"
             d="m 103.13621,283.63612 c 0,0 -5.555838,-7.82869 -5.303298,-16.92006 0.25254,-9.09137 3.535528,-21.71828 3.535528,-21.71828"
             id="path26067"
             inkscape:connector-curvature="0" />
          <circle
             r="7.5"
             cy="289.86221"
             cx="106.07143"
             id="circle26069"
             style="opacity:1;fill:#db0000;fill-opacity:1;stroke:none;stroke-width:1;stroke-linecap:round;stroke-linejoin:miter;stroke-miterlimit:4;stroke-dasharray:none;stroke-dashoffset:0;stroke-opacity:1" />
        </g>
      </g>
    </g>
    <path
       style="fill:#91ccff;fill-opacity:1;fill-rule:evenodd;stroke:#000000;stroke-width:1px;stroke-linecap:butt;stroke-linejoin:miter;stroke-opacity:1"
       d="m 94.448389,54.312756 0,37.49742 -12.569771,0 c 0,0 0.03325,-1.799568 0,-3.409372 -0.02185,-1.05788 1.895036,-3.684956 1.894036,-5.424413 -0.001,-1.697178 -1.799936,-3.62878 -1.894036,-5.424412 -0.08591,-1.639323 1.804676,-3.579582 1.894036,-5.424412 0.08762,-1.809021 -1.856626,-3.674307 -1.894036,-5.424413 -0.07481,-3.500212 1.894036,-2.653766 1.894036,-5.424412 0,-1.746647 -1.885538,-4.323433 -1.894036,-5.424413 -0.0075,-0.966796 0,-1.541573 0,-1.541573 z"
       id="path13832"
       inkscape:connector-curvature="0"
       sodipodi:nodetypes="cccssssssscc" />
    <circle
       r="1.4285713"
       cy="47.719345"
       cx="83.928574"
       id="circle34402"
       style="opacity:1;fill:#91ccff;fill-opacity:1;stroke:#000000;stroke-width:1;stroke-linecap:round;stroke-linejoin:miter;stroke-miterlimit:4;stroke-dasharray:none;stroke-dashoffset:0;stroke-opacity:1" />
    <circle
       style="opacity:1;fill:#91ccff;fill-opacity:1;stroke:#000000;stroke-width:1;stroke-linecap:round;stroke-linejoin:miter;stroke-miterlimit:4;stroke-dasharray:none;stroke-dashoffset:0;stroke-opacity:1"
       id="circle13849"
       cx="78.928574"
       cy="67.362198"
       r="1.4285713" />
    <circle
       r="1.4285713"
       cy="83.41732"
       cx="78.726433"
       id="circle13851"
       style="opacity:1;fill:#91ccff;fill-opacity:1;stroke:#000000;stroke-width:1;stroke-linecap:round;stroke-linejoin:miter;stroke-miterlimit:4;stroke-dasharray:none;stroke-dashoffset:0;stroke-opacity:1" />
    <circle
       style="opacity:1;fill:#91ccff;fill-opacity:1;stroke:#000000;stroke-width:1;stroke-linecap:round;stroke-linejoin:miter;stroke-miterlimit:4;stroke-dasharray:none;stroke-dashoffset:0;stroke-opacity:1"
       id="circle13853"
       cx="69.821426"
       cy="104.14791"
       r="1.4285713" />
    <circle
       r="1.4285713"
       cy="102.36219"
       cx="90.178574"
       id="circle13855"
       style="opacity:1;fill:#91ccff;fill-opacity:1;stroke:#000000;stroke-width:1;stroke-linecap:round;stroke-linejoin:miter;stroke-miterlimit:4;stroke-dasharray:none;stroke-dashoffset:0;stroke-opacity:1" />
    <path
       sodipodi:nodetypes="cccssssssscc"
       inkscape:connector-curvature="0"
       id="path13860"
       d="m 62.926969,54.312756 0,37.49742 12.569771,0 c 0,0 -0.03325,-1.799568 0,-3.409372 0.02185,-1.05788 -1.895036,-3.684956 -1.894036,-5.424413 10e-4,-1.697178 1.799936,-3.62878 1.894036,-5.424412 0.08591,-1.639323 -1.804676,-3.579582 -1.894036,-5.424412 -0.08762,-1.809021 1.856626,-3.674307 1.894036,-5.424413 0.07481,-3.500212 -1.894036,-2.653766 -1.894036,-5.424412 0,-1.746647 1.885538,-4.323433 1.894036,-5.424413 0.0075,-0.966796 0,-1.541573 0,-1.541573 z"
       style="fill:#91ccff;fill-opacity:1;fill-rule:evenodd;stroke:#000000;stroke-width:1px;stroke-linecap:butt;stroke-linejoin:miter;stroke-opacity:1" />
    <path
       style="fill:none;fill-rule:evenodd;stroke:#000000;stroke-width:1px;stroke-linecap:butt;stroke-linejoin:miter;stroke-opacity:1;marker-end:url(#TriangleOutM)"
       d="m 88.571429,115.30863 c 0,0 -6.25,-2.41071 -7.767857,-8.03571 C 79.285714,101.64792 78.75,96.469345 78.75,96.469345"
       id="path13862"
       inkscape:connector-curvature="0" />
    <text
       xml:space="preserve"
       style="font-style:normal;font-variant:normal;font-weight:normal;font-stretch:normal;font-size:17.5px;line-height:125%;font-family:'Calligraph421 BT';-inkscape-font-specification:'Calligraph421 BT';letter-spacing:0px;word-spacing:0px;fill:#000000;fill-opacity:1;stroke:none;stroke-width:1px;stroke-linecap:butt;stroke-linejoin:miter;stroke-opacity:1"
       x="92.136963"
       y="116.08746"
       id="text14162"
       sodipodi:linespacing="125%"><tspan
         sodipodi:role="line"
         id="tspan14164"
         x="92.136963"
         y="116.08746"
         style="font-style:normal;font-variant:normal;font-weight:normal;font-stretch:normal;font-size:12.5px;font-family:sans-serif;-inkscape-font-specification:sans-serif">K<tspan
   style="font-style:normal;font-variant:normal;font-weight:normal;font-stretch:normal;font-size:12.5px;font-family:sans-serif;-inkscape-font-specification:sans-serif;baseline-shift:super"
   id="tspan14166">+</tspan></tspan></text>
  </g>
</svg>
